<?xml version="1.0" encoding="UTF-8" standalone="no"?>
<svg
   xmlns:dc="http://purl.org/dc/elements/1.1/"
   xmlns:cc="http://creativecommons.org/ns#"
   xmlns:rdf="http://www.w3.org/1999/02/22-rdf-syntax-ns#"
   xmlns:svg="http://www.w3.org/2000/svg"
   xmlns="http://www.w3.org/2000/svg"
   id="svg4412"
   version="1.1"
   viewBox="0 0 35.630305 35.630307"
   height="35.630306mm"
   width="35.630306mm">
  <defs
     id="defs4406">
    <clipPath
       id="clipPath1556"
       clipPathUnits="userSpaceOnUse">
      <path
         id="path1554"
         d="m 242.762,448.246 h 35.55 v -71.091 h -35.55 z" />
    </clipPath>
    <clipPath
       id="clipPath1708"
       clipPathUnits="userSpaceOnUse">
      <path
         id="path1706"
         d="M 365.557,372.594 H 455.07 V 359.197 H 365.557 Z" />
    </clipPath>
    <clipPath
       id="clipPath1300"
       clipPathUnits="userSpaceOnUse">
      <path
         id="path1298"
         d="m 367.886,300.778 h 65.195 V 235.58 h -65.195 z" />
    </clipPath>
    <clipPath
       id="clipPath1372"
       clipPathUnits="userSpaceOnUse">
      <path
         id="path1370"
         d="M 363.392,237.141 H 403.03 V 205.229 H 363.392 Z" />
    </clipPath>
    <clipPath
       id="clipPath1616"
       clipPathUnits="userSpaceOnUse">
      <path
         id="path1614"
         d="M 57.2368,150.854 H 130.65 V 77.4414 H 57.2368 Z" />
    </clipPath>
    <clipPath
       id="clipPath664"
       clipPathUnits="userSpaceOnUse">
      <path
         id="path662"
         d="m 262.361,66.1875 h 30.868 V 44.2773 h -30.868 z" />
    </clipPath>
    <clipPath
       id="clipPath680"
       clipPathUnits="userSpaceOnUse">
      <path
         id="path678"
         d="m 206.024,83.7422 h 33.13 v -18.583 h -33.13 z" />
    </clipPath>
    <clipPath
       id="clipPath786"
       clipPathUnits="userSpaceOnUse">
      <path
         id="path784"
         d="m 61,448.16 h 64.61 v -70.1 H 61 Z" />
    </clipPath>
    <clipPath
       id="clipPath1064"
       clipPathUnits="userSpaceOnUse">
      <path
         id="path1062"
         d="m 170,444.75 h 70.24 V 377.41 H 170 Z" />
    </clipPath>
    <clipPath
       id="clipPath1120"
       clipPathUnits="userSpaceOnUse">
      <path
         id="path1118"
         d="m 289.83,436.26 h 63.56 v -58.67 h -63.56 z" />
    </clipPath>
    <clipPath
       id="clipPath1158"
       clipPathUnits="userSpaceOnUse">
      <path
         id="path1156"
         d="m 402.08,432.49 h 65.86 v -54.83 h -65.86 z" />
    </clipPath>
    <clipPath
       id="clipPath1182"
       clipPathUnits="userSpaceOnUse">
      <path
         id="path1180"
         d="M 397.86,434.26 H 430.9 V 409.1 h -33.04 z" />
    </clipPath>
    <clipPath
       id="clipPath32"
       clipPathUnits="userSpaceOnUse">
      <path
         id="path30"
         d="m 54.02,326.01 h 70.94 V 260.67 H 54.02 Z" />
    </clipPath>
    <clipPath
       id="clipPath824"
       clipPathUnits="userSpaceOnUse">
      <path
         id="path822"
         d="m 175.93,327.18 h 64.13 v -65.26 h -64.13 z" />
    </clipPath>
    <clipPath
       id="clipPath844"
       clipPathUnits="userSpaceOnUse">
      <path
         id="path842"
         d="m 183.243,324.715 h 25.326 v -33.647 h -25.326 z" />
    </clipPath>
    <clipPath
       id="clipPath908"
       clipPathUnits="userSpaceOnUse">
      <path
         id="path906"
         d="m 197.267,316.041 h 19.948 v -35.416 h -19.948 z" />
    </clipPath>
    <clipPath
       id="clipPath124"
       clipPathUnits="userSpaceOnUse">
      <path
         id="path122"
         d="m 291.95,324.64 h 62.06 v -63.89 h -62.06 z" />
    </clipPath>
    <clipPath
       id="clipPath146"
       clipPathUnits="userSpaceOnUse">
      <path
         id="path144"
         d="m 283.858,324.585 h 46.95 v -27.81 h -46.95 z" />
    </clipPath>
    <clipPath
       id="clipPath166"
       clipPathUnits="userSpaceOnUse">
      <path
         id="path164"
         d="m 286.145,322.192 h 3.077 v -3.077 h -3.077 z" />
    </clipPath>
    <clipPath
       id="clipPath182"
       clipPathUnits="userSpaceOnUse">
      <path
         id="path180"
         d="m 286.145,318.236 h 3.077 v -8.572 h -3.077 z" />
    </clipPath>
    <clipPath
       id="clipPath202"
       clipPathUnits="userSpaceOnUse">
      <path
         id="path200"
         d="m 396.97,320.9 h 70.44 v -60.11 h -70.44 z" />
    </clipPath>
    <clipPath
       id="clipPath228"
       clipPathUnits="userSpaceOnUse">
      <path
         id="path226"
         d="m 394.101,323.768 h 56.548 v -8.047 h -56.548 z" />
    </clipPath>
    <clipPath
       id="clipPath244"
       clipPathUnits="userSpaceOnUse">
      <path
         id="path242"
         d="m 419.483,308.056 h 5.784 v -2.671 h -5.784 z" />
    </clipPath>
    <clipPath
       id="clipPath260"
       clipPathUnits="userSpaceOnUse">
      <path
         id="path258"
         d="m 402.132,315.721 h 42.336 v -1.704 h -42.336 z" />
    </clipPath>
    <clipPath
       id="clipPath280"
       clipPathUnits="userSpaceOnUse">
      <path
         id="path278"
         d="m 395.92,295.074 h 2.318 v -2.318 h -2.318 z" />
    </clipPath>
    <clipPath
       id="clipPath300"
       clipPathUnits="userSpaceOnUse">
      <path
         id="path298"
         d="m 394.101,323.768 h 5.939 v -8.047 h -5.939 z" />
    </clipPath>
    <clipPath
       id="clipPath316"
       clipPathUnits="userSpaceOnUse">
      <path
         id="path314"
         d="m 444.711,323.768 h 5.938 v -8.047 h -5.938 z" />
    </clipPath>
    <clipPath
       id="clipPath332"
       clipPathUnits="userSpaceOnUse">
      <path
         id="path330"
         d="m 395.92,303.125 h 2.318 v -6.698 h -2.318 z" />
    </clipPath>
    <clipPath
       id="clipPath352"
       clipPathUnits="userSpaceOnUse">
      <path
         id="path350"
         d="M 58.7202,214.67 H 124.85 V 144.13 H 58.7202 Z" />
    </clipPath>
    <clipPath
       id="clipPath412"
       clipPathUnits="userSpaceOnUse">
      <path
         id="path410"
         d="m 178.09,206.33 h 62.17 v -61.92 h -62.17 z" />
    </clipPath>
    <clipPath
       id="clipPath492"
       clipPathUnits="userSpaceOnUse">
      <path
         id="path490"
         d="m 168.416,211.7 h 48.869 v -48.869 h -48.869 z" />
    </clipPath>
  </defs>
  <metadata
     id="metadata4409">
    <rdf:RDF>
      <cc:Work
         rdf:about="">
        <dc:format>image/svg+xml</dc:format>
        <dc:type
           rdf:resource="http://purl.org/dc/dcmitype/StillImage" />
        <dc:title></dc:title>
      </cc:Work>
    </rdf:RDF>
  </metadata>
  <g
     transform="translate(47.024886,17.487681)"
     id="layer1">
    <g
       id="g3833"
       transform="matrix(0.35277777,0,0,-0.35277777,-97.188211,67.988484)">
      <g
         id="g402"
         transform="translate(240.3599,191.79)">
        <path
           d="m 0,0 c 0,-1.05 -0.03,-2.1 -0.1,-3.13 -1.5,-23.16 -19.55,-41.81 -42.44,-44.25 -1.68,-0.19 -3.39,-0.28 -5.12,-0.28 -26.33,0 -47.67,21.34 -47.67,47.66 0,26.33 21.34,47.67 47.67,47.67 C -21.34,47.67 0,26.33 0,0"
           style="fill:#ffcd02;fill-opacity:1;fill-rule:nonzero;stroke:none"
           id="path404" />
      </g>
      <g
         id="g406">
        <g
           id="g408" />
        <g
           id="g420">
          <g
             clip-path="url(#clipPath412)"
             id="g418"
             style="opacity:0.5">
            <g
               transform="translate(240.2598,188.6602)"
               id="g416">
              <path
                 d="m 0,0 c -1.5,-23.16 -19.55,-41.811 -42.44,-44.25 l -19.73,18.63 43.28,43.29 z"
                 style="fill:#ffa800;fill-opacity:1;fill-rule:nonzero;stroke:none"
                 id="path414" />
            </g>
          </g>
        </g>
      </g>
      <g
         id="g422"
         transform="translate(221.3726,206.3291)">
        <path
           d="m 0,0 -43.287,-43.286 -10.402,10.401 43.287,43.287 z"
           style="fill:#3a6f81;fill-opacity:1;fill-rule:nonzero;stroke:none"
           id="path424" />
      </g>
      <g
         id="g426"
         transform="translate(176.1138,172.6475)">
        <path
           d="m 0,0 -1.258,-1.258 -4.614,4.614 1.258,1.258 z"
           style="fill:#356272;fill-opacity:1;fill-rule:nonzero;stroke:none"
           id="path428" />
      </g>
      <g
         id="g430"
         transform="translate(177.4565,178.0166)">
        <path
           d="m 0,0 -1.259,-1.259 -2.6,2.602 1.258,1.258 z"
           style="fill:#356272;fill-opacity:1;fill-rule:nonzero;stroke:none"
           id="path432" />
      </g>
      <g
         id="g434"
         transform="translate(182.8252,179.3594)">
        <path
           d="m 0,0 -1.258,-1.259 -4.614,4.613 1.258,1.259 z"
           style="fill:#356272;fill-opacity:1;fill-rule:nonzero;stroke:none"
           id="path436" />
      </g>
      <g
         id="g438"
         transform="translate(184.1675,184.7285)">
        <path
           d="M 0,0 -1.258,-1.259 -3.859,1.342 -2.6,2.6 Z"
           style="fill:#356272;fill-opacity:1;fill-rule:nonzero;stroke:none"
           id="path440" />
      </g>
      <g
         id="g442"
         transform="translate(189.5361,186.0703)">
        <path
           d="m 0,0 -1.258,-1.259 -4.614,4.614 1.258,1.259 z"
           style="fill:#356272;fill-opacity:1;fill-rule:nonzero;stroke:none"
           id="path444" />
      </g>
      <g
         id="g446"
         transform="translate(190.8789,191.4385)">
        <path
           d="m 0,0 -1.259,-1.258 -2.6,2.6 1.258,1.259 z"
           style="fill:#356272;fill-opacity:1;fill-rule:nonzero;stroke:none"
           id="path448" />
      </g>
      <g
         id="g450"
         transform="translate(196.2476,192.7813)">
        <path
           d="m 0,0 -1.258,-1.258 -4.614,4.613 1.258,1.259 z"
           style="fill:#356272;fill-opacity:1;fill-rule:nonzero;stroke:none"
           id="path452" />
      </g>
      <g
         id="g454"
         transform="translate(197.5898,198.1504)">
        <path
           d="m 0,0 -1.258,-1.258 -2.601,2.6 1.259,1.259 z"
           style="fill:#356272;fill-opacity:1;fill-rule:nonzero;stroke:none"
           id="path456" />
      </g>
      <g
         id="g458"
         transform="translate(202.959,199.4922)">
        <path
           d="m 0,0 -1.258,-1.258 -4.615,4.614 1.259,1.257 z"
           style="fill:#356272;fill-opacity:1;fill-rule:nonzero;stroke:none"
           id="path460" />
      </g>
      <g
         id="g462"
         transform="translate(204.3013,204.8613)">
        <path
           d="m 0,0 -1.258,-1.259 -2.601,2.601 1.258,1.259 z"
           style="fill:#356272;fill-opacity:1;fill-rule:nonzero;stroke:none"
           id="path464" />
      </g>
      <g
         id="g466"
         transform="translate(209.6699,206.2031)">
        <path
           d="m 0,0 -1.258,-1.259 -4.614,4.614 1.258,1.259 z"
           style="fill:#356272;fill-opacity:1;fill-rule:nonzero;stroke:none"
           id="path468" />
      </g>
      <g
         id="g470"
         transform="translate(211.0122,211.5723)">
        <path
           d="m 0,0 -1.258,-1.259 -2.6,2.602 1.258,1.258 z"
           style="fill:#356272;fill-opacity:1;fill-rule:nonzero;stroke:none"
           id="path472" />
      </g>
      <g
         id="g474"
         transform="translate(219.104,172.7578)">
        <path
           d="m 0,0 -7.83,-7.83 -36.156,36.156 7.83,7.829 z"
           style="fill:#ffffff;fill-opacity:1;fill-rule:nonzero;stroke:none"
           id="path476" />
      </g>
      <g
         id="g478"
         transform="translate(176.2461,215.6152)">
        <path
           d="m 0,0 -7.83,-7.83 6.702,-6.701 7.83,7.829 z"
           style="fill:#1abc9c;fill-opacity:1;fill-rule:nonzero;stroke:none"
           id="path480" />
      </g>
      <g
         id="g482"
         transform="translate(221.2002,170.6611)">
        <path
           d="m 0,0 -7.83,-7.83 -2.096,2.097 7.83,7.83 z"
           style="fill:#356272;fill-opacity:1;fill-rule:nonzero;stroke:none"
           id="path484" />
      </g>
      <g
         id="g486">
        <g
           id="g488" />
        <g
           id="g500">
          <g
             clip-path="url(#clipPath492)"
             id="g498"
             style="opacity:0.30000299">
            <g
               transform="translate(172.3311,211.7002)"
               id="g496">
              <path
                 d="m 0,0 -3.915,-3.915 44.954,-44.954 3.915,3.915 z"
                 style="fill:#cccccc;fill-opacity:1;fill-rule:nonzero;stroke:none"
                 id="path494" />
            </g>
          </g>
        </g>
      </g>
    </g>
  </g>
</svg>
